<svg xmlns="http://www.w3.org/2000/svg" version="1.1" xmlns:xlink="http://www.w3.org/1999/xlink" xmlns:svgjs="http://svgjs.com/svgjs" width="1440" height="560" preserveAspectRatio="none" viewBox="0 0 1440 560"><g mask="url(&quot;#SvgjsMask1000&quot;)" fill="none"><rect width="1440" height="560" x="0" y="0" fill="#0e2a47"></rect><path d="M-78.6 528.12L-78.6 528.12" stroke="#132e65" stroke-width="1.5"></path><path d="M-78.6 528.12L-61.17 637.73" stroke="#132e65" stroke-width="1.5"></path><path d="M-78.6 528.12L40.86 646.96" stroke="#132e65" stroke-width="1.5"></path><path d="M-78.6 528.12L88.34 560.16" stroke="#132e65" stroke-width="1.5"></path><path d="M-78.6 528.12L55.52 377.21" stroke="#132e65" stroke-width="1.5"></path><path d="M-78.6 528.12L193.17 342.13" stroke="#132e65" stroke-width="1.5"></path><path d="M-61.17 637.73L-61.17 637.73" stroke="#132e65" stroke-width="1.5"></path><path d="M-61.17 637.73L40.86 646.96" stroke="#132e65" stroke-width="1.5"></path><path d="M-61.17 637.73L88.34 560.16" stroke="#132e65" stroke-width="1.5"></path><path d="M55.52 377.21L55.52 377.21" stroke="#132e65" stroke-width="1.5"></path><path d="M55.52 377.21L193.17 342.13" stroke="#132e65" stroke-width="1.5"></path><path d="M55.52 377.21L88.34 560.16" stroke="#132e65" stroke-width="1.5"></path><path d="M55.52 377.21L252.03 558.74" stroke="#132e65" stroke-width="1.5"></path><path d="M88.34 560.16L88.34 560.16" stroke="#132e65" stroke-width="1.5"></path><path d="M88.34 560.16L40.86 646.96" stroke="#132e65" stroke-width="1.5"></path><path d="M88.34 560.16L252.03 558.74" stroke="#132e65" stroke-width="1.5"></path><path d="M40.86 646.96L40.86 646.96" stroke="#132e65" stroke-width="1.5"></path><path d="M40.86 646.96L250.47 651.22" stroke="#132e65" stroke-width="1.5"></path><path d="M193.17 342.13L193.17 342.13" stroke="#132e65" stroke-width="1.5"></path><path d="M193.17 342.13L252.03 558.74" stroke="#132e65" stroke-width="1.5"></path><path d="M252.03 558.74L252.03 558.74" stroke="#132e65" stroke-width="1.5"></path><path d="M252.03 558.74L250.47 651.22" stroke="#132e65" stroke-width="1.5"></path><path d="M252.03 558.74L390.02 507.9" stroke="#132e65" stroke-width="1.5"></path><path d="M252.03 558.74L354.82 705.06" stroke="#132e65" stroke-width="1.5"></path><path d="M250.47 651.22L250.47 651.22" stroke="#132e65" stroke-width="1.5"></path><path d="M250.47 651.22L354.82 705.06" stroke="#132e65" stroke-width="1.5"></path><path d="M250.47 651.22L88.34 560.16" stroke="#132e65" stroke-width="1.5"></path><path d="M250.47 651.22L390.02 507.9" stroke="#132e65" stroke-width="1.5"></path><path d="M390.02 507.9L390.02 507.9" stroke="#132e65" stroke-width="1.5"></path><path d="M390.02 507.9L495.83 532.81" stroke="#132e65" stroke-width="1.5"></path><path d="M390.02 507.9L519.79 386.37" stroke="#132e65" stroke-width="1.5"></path><path d="M354.82 705.06L354.82 705.06" stroke="#132e65" stroke-width="1.5"></path><path d="M354.82 705.06L390.02 507.9" stroke="#132e65" stroke-width="1.5"></path><path d="M354.82 705.06L558.82 677.67" stroke="#132e65" stroke-width="1.5"></path><path d="M354.82 705.06L495.83 532.81" stroke="#132e65" stroke-width="1.5"></path><path d="M354.82 705.06L88.34 560.16" stroke="#132e65" stroke-width="1.5"></path><path d="M519.79 386.37L519.79 386.37" stroke="#132e65" stroke-width="1.5"></path><path d="M519.79 386.37L495.83 532.81" stroke="#132e65" stroke-width="1.5"></path><path d="M519.79 386.37L640.29 547.26" stroke="#132e65" stroke-width="1.5"></path><path d="M495.83 532.81L495.83 532.81" stroke="#132e65" stroke-width="1.5"></path><path d="M495.83 532.81L640.29 547.26" stroke="#132e65" stroke-width="1.5"></path><path d="M495.83 532.81L558.82 677.67" stroke="#132e65" stroke-width="1.5"></path><path d="M495.83 532.81L665.06 660.29" stroke="#132e65" stroke-width="1.5"></path><path d="M558.82 677.67L558.82 677.67" stroke="#132e65" stroke-width="1.5"></path><path d="M558.82 677.67L665.06 660.29" stroke="#132e65" stroke-width="1.5"></path><path d="M558.82 677.67L640.29 547.26" stroke="#132e65" stroke-width="1.5"></path><path d="M558.82 677.67L390.02 507.9" stroke="#132e65" stroke-width="1.5"></path><path d="M704.79 234.99L704.79 234.99" stroke="#132e65" stroke-width="1.5"></path><path d="M704.79 234.99L844.18 251.57" stroke="#132e65" stroke-width="1.5"></path><path d="M704.79 234.99L821.2 400.3" stroke="#132e65" stroke-width="1.5"></path><path d="M640.29 547.26L640.29 547.26" stroke="#132e65" stroke-width="1.5"></path><path d="M640.29 547.26L665.06 660.29" stroke="#132e65" stroke-width="1.5"></path><path d="M640.29 547.26L826.68 556.05" stroke="#132e65" stroke-width="1.5"></path><path d="M640.29 547.26L803.25 704.69" stroke="#132e65" stroke-width="1.5"></path><path d="M665.06 660.29L665.06 660.29" stroke="#132e65" stroke-width="1.5"></path><path d="M665.06 660.29L803.25 704.69" stroke="#132e65" stroke-width="1.5"></path><path d="M665.06 660.29L826.68 556.05" stroke="#132e65" stroke-width="1.5"></path><path d="M665.06 660.29L941.1 711.21" stroke="#132e65" stroke-width="1.5"></path><path d="M844.18 251.57L844.18 251.57" stroke="#132e65" stroke-width="1.5"></path><path d="M844.18 251.57L821.2 400.3" stroke="#132e65" stroke-width="1.5"></path><path d="M844.18 251.57L997.54 218.11" stroke="#132e65" stroke-width="1.5"></path><path d="M844.18 251.57L966.82 53.2" stroke="#132e65" stroke-width="1.5"></path><path d="M821.2 400.3L821.2 400.3" stroke="#132e65" stroke-width="1.5"></path><path d="M821.2 400.3L826.68 556.05" stroke="#132e65" stroke-width="1.5"></path><path d="M821.2 400.3L974.69 511.98" stroke="#132e65" stroke-width="1.5"></path><path d="M821.2 400.3L640.29 547.26" stroke="#132e65" stroke-width="1.5"></path><path d="M826.68 556.05L826.68 556.05" stroke="#132e65" stroke-width="1.5"></path><path d="M826.68 556.05L803.25 704.69" stroke="#132e65" stroke-width="1.5"></path><path d="M826.68 556.05L974.69 511.98" stroke="#132e65" stroke-width="1.5"></path><path d="M803.25 704.69L803.25 704.69" stroke="#132e65" stroke-width="1.5"></path><path d="M803.25 704.69L941.1 711.21" stroke="#132e65" stroke-width="1.5"></path><path d="M803.25 704.69L558.82 677.67" stroke="#132e65" stroke-width="1.5"></path><path d="M803.25 704.69L974.69 511.98" stroke="#132e65" stroke-width="1.5"></path><path d="M966.82 53.2L966.82 53.2" stroke="#132e65" stroke-width="1.5"></path><path d="M966.82 53.2L1104.54 71.78" stroke="#132e65" stroke-width="1.5"></path><path d="M966.82 53.2L997.54 218.11" stroke="#132e65" stroke-width="1.5"></path><path d="M966.82 53.2L1135.54 -98.79" stroke="#132e65" stroke-width="1.5"></path><path d="M966.82 53.2L1146.06 198.66" stroke="#132e65" stroke-width="1.5"></path><path d="M997.54 218.11L997.54 218.11" stroke="#132e65" stroke-width="1.5"></path><path d="M997.54 218.11L1146.06 198.66" stroke="#132e65" stroke-width="1.5"></path><path d="M974.69 511.98L974.69 511.98" stroke="#132e65" stroke-width="1.5"></path><path d="M974.69 511.98L1139.77 521.48" stroke="#132e65" stroke-width="1.5"></path><path d="M974.69 511.98L1107.46 393.3" stroke="#132e65" stroke-width="1.5"></path><path d="M941.1 711.21L941.1 711.21" stroke="#132e65" stroke-width="1.5"></path><path d="M941.1 711.21L1112.95 652.75" stroke="#132e65" stroke-width="1.5"></path><path d="M1135.54 -98.79L1135.54 -98.79" stroke="#132e65" stroke-width="1.5"></path><path d="M1135.54 -98.79L1275.86 -52.83" stroke="#132e65" stroke-width="1.5"></path><path d="M1135.54 -98.79L1104.54 71.78" stroke="#132e65" stroke-width="1.5"></path><path d="M1135.54 -98.79L1390.53 -83.91" stroke="#132e65" stroke-width="1.5"></path><path d="M1135.54 -98.79L1304.54 99.49" stroke="#132e65" stroke-width="1.5"></path><path d="M1104.54 71.78L1104.54 71.78" stroke="#132e65" stroke-width="1.5"></path><path d="M1104.54 71.78L1146.06 198.66" stroke="#132e65" stroke-width="1.5"></path><path d="M1146.06 198.66L1146.06 198.66" stroke="#132e65" stroke-width="1.5"></path><path d="M1146.06 198.66L1290.98 230.9" stroke="#132e65" stroke-width="1.5"></path><path d="M1107.46 393.3L1107.46 393.3" stroke="#132e65" stroke-width="1.5"></path><path d="M1107.46 393.3L1139.77 521.48" stroke="#132e65" stroke-width="1.5"></path><path d="M1107.46 393.3L1239.42 500.45" stroke="#132e65" stroke-width="1.5"></path><path d="M1107.46 393.3L1287.6 355.44" stroke="#132e65" stroke-width="1.5"></path><path d="M1107.46 393.3L1146.06 198.66" stroke="#132e65" stroke-width="1.5"></path><path d="M1139.77 521.48L1139.77 521.48" stroke="#132e65" stroke-width="1.5"></path><path d="M1139.77 521.48L1239.42 500.45" stroke="#132e65" stroke-width="1.5"></path><path d="M1139.77 521.48L1112.95 652.75" stroke="#132e65" stroke-width="1.5"></path><path d="M1112.95 652.75L1112.95 652.75" stroke="#132e65" stroke-width="1.5"></path><path d="M1112.95 652.75L1291.17 647.25" stroke="#132e65" stroke-width="1.5"></path><path d="M1112.95 652.75L974.69 511.98" stroke="#132e65" stroke-width="1.5"></path><path d="M1275.86 -52.83L1275.86 -52.83" stroke="#132e65" stroke-width="1.5"></path><path d="M1275.86 -52.83L1390.53 -83.91" stroke="#132e65" stroke-width="1.5"></path><path d="M1275.86 -52.83L1304.54 99.49" stroke="#132e65" stroke-width="1.5"></path><path d="M1275.86 -52.83L1424.1 43.35" stroke="#132e65" stroke-width="1.5"></path><path d="M1275.86 -52.83L1104.54 71.78" stroke="#132e65" stroke-width="1.5"></path><path d="M1275.86 -52.83L1552.83 -60.02" stroke="#132e65" stroke-width="1.5"></path><path d="M1304.54 99.49L1304.54 99.49" stroke="#132e65" stroke-width="1.5"></path><path d="M1304.54 99.49L1424.1 43.35" stroke="#132e65" stroke-width="1.5"></path><path d="M1304.54 99.49L1290.98 230.9" stroke="#132e65" stroke-width="1.5"></path><path d="M1304.54 99.49L1146.06 198.66" stroke="#132e65" stroke-width="1.5"></path><path d="M1304.54 99.49L1426.22 248.63" stroke="#132e65" stroke-width="1.5"></path><path d="M1304.54 99.49L1104.54 71.78" stroke="#132e65" stroke-width="1.5"></path><path d="M1290.98 230.9L1290.98 230.9" stroke="#132e65" stroke-width="1.5"></path><path d="M1290.98 230.9L1287.6 355.44" stroke="#132e65" stroke-width="1.5"></path><path d="M1290.98 230.9L1426.22 248.63" stroke="#132e65" stroke-width="1.5"></path><path d="M1287.6 355.44L1287.6 355.44" stroke="#132e65" stroke-width="1.5"></path><path d="M1287.6 355.44L1239.42 500.45" stroke="#132e65" stroke-width="1.5"></path><path d="M1287.6 355.44L1458.57 342.44" stroke="#132e65" stroke-width="1.5"></path><path d="M1239.42 500.45L1239.42 500.45" stroke="#132e65" stroke-width="1.5"></path><path d="M1291.17 647.25L1291.17 647.25" stroke="#132e65" stroke-width="1.5"></path><path d="M1291.17 647.25L1387.6 710.23" stroke="#132e65" stroke-width="1.5"></path><path d="M1291.17 647.25L1239.42 500.45" stroke="#132e65" stroke-width="1.5"></path><path d="M1291.17 647.25L1449.19 549.43" stroke="#132e65" stroke-width="1.5"></path><path d="M1291.17 647.25L1139.77 521.48" stroke="#132e65" stroke-width="1.5"></path><path d="M1291.17 647.25L1287.6 355.44" stroke="#132e65" stroke-width="1.5"></path><path d="M1390.53 -83.91L1390.53 -83.91" stroke="#132e65" stroke-width="1.5"></path><path d="M1390.53 -83.91L1424.1 43.35" stroke="#132e65" stroke-width="1.5"></path><path d="M1390.53 -83.91L1552.83 -60.02" stroke="#132e65" stroke-width="1.5"></path><path d="M1390.53 -83.91L1304.54 99.49" stroke="#132e65" stroke-width="1.5"></path><path d="M1424.1 43.35L1424.1 43.35" stroke="#132e65" stroke-width="1.5"></path><path d="M1424.1 43.35L1576.96 93.79" stroke="#132e65" stroke-width="1.5"></path><path d="M1424.1 43.35L1552.83 -60.02" stroke="#132e65" stroke-width="1.5"></path><path d="M1426.22 248.63L1426.22 248.63" stroke="#132e65" stroke-width="1.5"></path><path d="M1426.22 248.63L1458.57 342.44" stroke="#132e65" stroke-width="1.5"></path><path d="M1426.22 248.63L1588.87 228.96" stroke="#132e65" stroke-width="1.5"></path><path d="M1426.22 248.63L1287.6 355.44" stroke="#132e65" stroke-width="1.5"></path><path d="M1426.22 248.63L1424.1 43.35" stroke="#132e65" stroke-width="1.5"></path><path d="M1458.57 342.44L1458.57 342.44" stroke="#132e65" stroke-width="1.5"></path><path d="M1458.57 342.44L1588.87 228.96" stroke="#132e65" stroke-width="1.5"></path><path d="M1449.19 549.43L1449.19 549.43" stroke="#132e65" stroke-width="1.5"></path><path d="M1449.19 549.43L1554.59 497.56" stroke="#132e65" stroke-width="1.5"></path><path d="M1449.19 549.43L1387.6 710.23" stroke="#132e65" stroke-width="1.5"></path><path d="M1387.6 710.23L1387.6 710.23" stroke="#132e65" stroke-width="1.5"></path><path d="M1387.6 710.23L1598.34 652.46" stroke="#132e65" stroke-width="1.5"></path><path d="M1387.6 710.23L1239.42 500.45" stroke="#132e65" stroke-width="1.5"></path><path d="M1387.6 710.23L1554.59 497.56" stroke="#132e65" stroke-width="1.5"></path><path d="M1387.6 710.23L1112.95 652.75" stroke="#132e65" stroke-width="1.5"></path><path d="M1552.83 -60.02L1552.83 -60.02" stroke="#132e65" stroke-width="1.5"></path><path d="M1552.83 -60.02L1576.96 93.79" stroke="#132e65" stroke-width="1.5"></path><path d="M1576.96 93.79L1576.96 93.79" stroke="#132e65" stroke-width="1.5"></path><path d="M1576.96 93.79L1588.87 228.96" stroke="#132e65" stroke-width="1.5"></path><path d="M1576.96 93.79L1426.22 248.63" stroke="#132e65" stroke-width="1.5"></path><path d="M1576.96 93.79L1390.53 -83.91" stroke="#132e65" stroke-width="1.5"></path><path d="M1576.96 93.79L1304.54 99.49" stroke="#132e65" stroke-width="1.5"></path><path d="M1588.87 228.96L1588.87 228.96" stroke="#132e65" stroke-width="1.5"></path><path d="M1588.87 228.96L1424.1 43.35" stroke="#132e65" stroke-width="1.5"></path><path d="M1588.87 228.96L1554.59 497.56" stroke="#132e65" stroke-width="1.5"></path><path d="M1588.87 228.96L1552.83 -60.02" stroke="#132e65" stroke-width="1.5"></path><path d="M1554.59 497.56L1554.59 497.56" stroke="#132e65" stroke-width="1.5"></path><path d="M1554.59 497.56L1598.34 652.46" stroke="#132e65" stroke-width="1.5"></path><path d="M1598.34 652.46L1598.34 652.46" stroke="#132e65" stroke-width="1.5"></path><path d="M1598.34 652.46L1449.19 549.43" stroke="#132e65" stroke-width="1.5"></path><path d="M1598.34 652.46L1291.17 647.25" stroke="#132e65" stroke-width="1.5"></path><path d="M1598.34 652.46L1458.57 342.44" stroke="#132e65" stroke-width="1.5"></path><path d="M1598.34 652.46L1239.42 500.45" stroke="#132e65" stroke-width="1.5"></path><circle r="5" cx="-78.6" cy="528.12" fill="#132e65"></circle><circle r="5" cx="-61.17" cy="637.73" fill="#132e65"></circle><circle r="5" cx="55.52" cy="377.21" fill="#132e65"></circle><circle r="5" cx="88.34" cy="560.16" fill="#132e65"></circle><circle r="5" cx="40.86" cy="646.96" fill="#132e65"></circle><circle r="5" cx="193.17" cy="342.13" fill="#132e65"></circle><circle r="5" cx="252.03" cy="558.74" fill="#132e65"></circle><circle r="5" cx="250.47" cy="651.22" fill="#132e65"></circle><circle r="5" cx="390.02" cy="507.9" fill="#132e65"></circle><circle r="5" cx="354.82" cy="705.06" fill="#132e65"></circle><circle r="5" cx="519.79" cy="386.37" fill="#132e65"></circle><circle r="5" cx="495.83" cy="532.81" fill="#132e65"></circle><circle r="5" cx="558.82" cy="677.67" fill="#132e65"></circle><circle r="5" cx="704.79" cy="234.99" fill="#132e65"></circle><circle r="5" cx="640.29" cy="547.26" fill="#132e65"></circle><circle r="5" cx="665.06" cy="660.29" fill="#132e65"></circle><circle r="5" cx="844.18" cy="251.57" fill="#132e65"></circle><circle r="5" cx="821.2" cy="400.3" fill="#132e65"></circle><circle r="5" cx="826.68" cy="556.05" fill="#132e65"></circle><circle r="5" cx="803.25" cy="704.69" fill="#132e65"></circle><circle r="5" cx="966.82" cy="53.2" fill="#132e65"></circle><circle r="5" cx="997.54" cy="218.11" fill="#132e65"></circle><circle r="5" cx="974.69" cy="511.98" fill="#132e65"></circle><circle r="5" cx="941.1" cy="711.21" fill="#132e65"></circle><circle r="5" cx="1135.54" cy="-98.79" fill="#132e65"></circle><circle r="5" cx="1104.54" cy="71.78" fill="#132e65"></circle><circle r="5" cx="1146.06" cy="198.66" fill="#132e65"></circle><circle r="5" cx="1107.46" cy="393.3" fill="#132e65"></circle><circle r="5" cx="1139.77" cy="521.48" fill="#132e65"></circle><circle r="5" cx="1112.95" cy="652.75" fill="#132e65"></circle><circle r="5" cx="1275.86" cy="-52.83" fill="#132e65"></circle><circle r="5" cx="1304.54" cy="99.49" fill="#132e65"></circle><circle r="5" cx="1290.98" cy="230.9" fill="#132e65"></circle><circle r="5" cx="1287.6" cy="355.44" fill="#132e65"></circle><circle r="5" cx="1239.42" cy="500.45" fill="#132e65"></circle><circle r="5" cx="1291.17" cy="647.25" fill="#132e65"></circle><circle r="5" cx="1390.53" cy="-83.91" fill="#132e65"></circle><circle r="5" cx="1424.1" cy="43.35" fill="#132e65"></circle><circle r="5" cx="1426.22" cy="248.63" fill="#132e65"></circle><circle r="5" cx="1458.57" cy="342.44" fill="#132e65"></circle><circle r="5" cx="1449.19" cy="549.43" fill="#132e65"></circle><circle r="5" cx="1387.6" cy="710.23" fill="#132e65"></circle><circle r="5" cx="1552.83" cy="-60.02" fill="#132e65"></circle><circle r="5" cx="1576.96" cy="93.79" fill="#132e65"></circle><circle r="5" cx="1588.87" cy="228.96" fill="#132e65"></circle><circle r="5" cx="1554.59" cy="497.56" fill="#132e65"></circle><circle r="5" cx="1598.34" cy="652.46" fill="#132e65"></circle><path d="M51.45 516.27L51.45 516.27" stroke="hsl(228.5, 77.2%, 51.5%)" stroke-width="1.5"></path><path d="M51.45 516.27L-77.81 496.68" stroke="hsl(228.5, 77.2%, 51.5%)" stroke-width="1.5"></path><path d="M51.45 516.27L66.42 676.73" stroke="hsl(228.5, 77.2%, 51.5%)" stroke-width="1.5"></path><path d="M51.45 516.27L212.01 537.86" stroke="hsl(228.5, 77.2%, 51.5%)" stroke-width="1.5"></path><path d="M51.45 516.27L-100.76 669.9" stroke="hsl(228.5, 77.2%, 51.5%)" stroke-width="1.5"></path><path d="M51.45 516.27L234.5 709.14" stroke="hsl(228.5, 77.2%, 51.5%)" stroke-width="1.5"></path><path d="M51.45 516.27L346.08 669.89" stroke="hsl(228.5, 77.2%, 51.5%)" stroke-width="1.5"></path><path d="M490.05 643.33L490.05 643.33" stroke="hsl(228.5, 77.2%, 51.5%)" stroke-width="1.5"></path><path d="M490.05 643.33L346.08 669.89" stroke="hsl(228.5, 77.2%, 51.5%)" stroke-width="1.5"></path><path d="M490.05 643.33L507.45 491.82" stroke="hsl(228.5, 77.2%, 51.5%)" stroke-width="1.5"></path><path d="M662.01 658.14L662.01 658.14" stroke="hsl(228.5, 77.2%, 51.5%)" stroke-width="1.5"></path><path d="M662.01 658.14L652.01 534.26" stroke="hsl(228.5, 77.2%, 51.5%)" stroke-width="1.5"></path><path d="M662.01 658.14L790.15 648.66" stroke="hsl(228.5, 77.2%, 51.5%)" stroke-width="1.5"></path><path d="M662.01 658.14L490.05 643.33" stroke="hsl(228.5, 77.2%, 51.5%)" stroke-width="1.5"></path><path d="M662.01 658.14L797.36 532.46" stroke="hsl(228.5, 77.2%, 51.5%)" stroke-width="1.5"></path><path d="M948.07 346.5L948.07 346.5" stroke="hsl(228.5, 77.2%, 51.5%)" stroke-width="1.5"></path><path d="M948.07 346.5L1002.58 251.04" stroke="hsl(228.5, 77.2%, 51.5%)" stroke-width="1.5"></path><path d="M948.07 346.5L819.26 391.14" stroke="hsl(228.5, 77.2%, 51.5%)" stroke-width="1.5"></path><path d="M948.07 346.5L989.75 493.14" stroke="hsl(228.5, 77.2%, 51.5%)" stroke-width="1.5"></path><path d="M948.07 346.5L1105.41 370.8" stroke="hsl(228.5, 77.2%, 51.5%)" stroke-width="1.5"></path><path d="M948.07 346.5L1138.1 239.84" stroke="hsl(228.5, 77.2%, 51.5%)" stroke-width="1.5"></path><path d="M990.29 656.28L990.29 656.28" stroke="hsl(228.5, 77.2%, 51.5%)" stroke-width="1.5"></path><path d="M990.29 656.28L1126.98 679.69" stroke="hsl(228.5, 77.2%, 51.5%)" stroke-width="1.5"></path><path d="M990.29 656.28L989.75 493.14" stroke="hsl(228.5, 77.2%, 51.5%)" stroke-width="1.5"></path><path d="M990.29 656.28L1147.16 535.09" stroke="hsl(228.5, 77.2%, 51.5%)" stroke-width="1.5"></path><path d="M990.29 656.28L790.15 648.66" stroke="hsl(228.5, 77.2%, 51.5%)" stroke-width="1.5"></path><path d="M990.29 656.28L797.36 532.46" stroke="hsl(228.5, 77.2%, 51.5%)" stroke-width="1.5"></path><path d="M990.29 656.28L1247.97 488.38" stroke="hsl(228.5, 77.2%, 51.5%)" stroke-width="1.5"></path><path d="M1294.81 366.92L1294.81 366.92" stroke="hsl(228.5, 77.2%, 51.5%)" stroke-width="1.5"></path><path d="M1294.81 366.92L1247.97 488.38" stroke="hsl(228.5, 77.2%, 51.5%)" stroke-width="1.5"></path><path d="M1294.81 366.92L1432.61 346.34" stroke="hsl(228.5, 77.2%, 51.5%)" stroke-width="1.5"></path><path d="M1555.35 346.13L1555.35 346.13" stroke="hsl(228.5, 77.2%, 51.5%)" stroke-width="1.5"></path><path d="M1555.35 346.13L1574.28 237.84" stroke="hsl(228.5, 77.2%, 51.5%)" stroke-width="1.5"></path><path d="M1555.35 346.13L1432.61 346.34" stroke="hsl(228.5, 77.2%, 51.5%)" stroke-width="1.5"></path><path d="M1555.35 346.13L1419.28 220.52" stroke="hsl(228.5, 77.2%, 51.5%)" stroke-width="1.5"></path><path d="M1555.35 346.13L1602.99 531.65" stroke="hsl(228.5, 77.2%, 51.5%)" stroke-width="1.5"></path><path d="M1555.35 346.13L1545.52 110.56" stroke="hsl(228.5, 77.2%, 51.5%)" stroke-width="1.5"></path><path d="M1555.35 346.13L1388.4 522.07" stroke="hsl(228.5, 77.2%, 51.5%)" stroke-width="1.5"></path><path d="M1602.99 531.65L1602.99 531.65" stroke="hsl(228.5, 77.2%, 51.5%)" stroke-width="1.5"></path><path d="M1602.99 531.65L1580.84 684.55" stroke="hsl(228.5, 77.2%, 51.5%)" stroke-width="1.5"></path><path d="M1602.99 531.65L1388.4 522.07" stroke="hsl(228.5, 77.2%, 51.5%)" stroke-width="1.5"></path><path d="M1602.99 531.65L1432.61 346.34" stroke="hsl(228.5, 77.2%, 51.5%)" stroke-width="1.5"></path><path d="M1602.99 531.65L1574.28 237.84" stroke="hsl(228.5, 77.2%, 51.5%)" stroke-width="1.5"></path><path d="M1602.99 531.65L1294.81 366.92" stroke="hsl(228.5, 77.2%, 51.5%)" stroke-width="1.5"></path><path d="M-77.81 496.68L-77.81 496.68" stroke="hsl(228.5, 77.2%, 51.5%)" stroke-width="1.5"></path><path d="M-77.81 496.68L-100.76 669.9" stroke="hsl(228.5, 77.2%, 51.5%)" stroke-width="1.5"></path><path d="M-100.76 669.9L-100.76 669.9" stroke="hsl(228.5, 77.2%, 51.5%)" stroke-width="1.5"></path><path d="M-100.76 669.9L66.42 676.73" stroke="hsl(228.5, 77.2%, 51.5%)" stroke-width="1.5"></path><path d="M-100.76 669.9L234.5 709.14" stroke="hsl(228.5, 77.2%, 51.5%)" stroke-width="1.5"></path><path d="M66.42 676.73L66.42 676.73" stroke="hsl(228.5, 77.2%, 51.5%)" stroke-width="1.5"></path><path d="M212.01 537.86L212.01 537.86" stroke="hsl(228.5, 77.2%, 51.5%)" stroke-width="1.5"></path><path d="M212.01 537.86L234.5 709.14" stroke="hsl(228.5, 77.2%, 51.5%)" stroke-width="1.5"></path><path d="M212.01 537.86L385.05 505.83" stroke="hsl(228.5, 77.2%, 51.5%)" stroke-width="1.5"></path><path d="M212.01 537.86L346.08 669.89" stroke="hsl(228.5, 77.2%, 51.5%)" stroke-width="1.5"></path><path d="M234.5 709.14L234.5 709.14" stroke="hsl(228.5, 77.2%, 51.5%)" stroke-width="1.5"></path><path d="M234.5 709.14L346.08 669.89" stroke="hsl(228.5, 77.2%, 51.5%)" stroke-width="1.5"></path><path d="M234.5 709.14L66.42 676.73" stroke="hsl(228.5, 77.2%, 51.5%)" stroke-width="1.5"></path><path d="M234.5 709.14L385.05 505.83" stroke="hsl(228.5, 77.2%, 51.5%)" stroke-width="1.5"></path><path d="M234.5 709.14L490.05 643.33" stroke="hsl(228.5, 77.2%, 51.5%)" stroke-width="1.5"></path><path d="M385.05 505.83L385.05 505.83" stroke="hsl(228.5, 77.2%, 51.5%)" stroke-width="1.5"></path><path d="M385.05 505.83L507.45 491.82" stroke="hsl(228.5, 77.2%, 51.5%)" stroke-width="1.5"></path><path d="M385.05 505.83L346.08 669.89" stroke="hsl(228.5, 77.2%, 51.5%)" stroke-width="1.5"></path><path d="M346.08 669.89L346.08 669.89" stroke="hsl(228.5, 77.2%, 51.5%)" stroke-width="1.5"></path><path d="M507.45 491.82L507.45 491.82" stroke="hsl(228.5, 77.2%, 51.5%)" stroke-width="1.5"></path><path d="M507.45 491.82L652.01 534.26" stroke="hsl(228.5, 77.2%, 51.5%)" stroke-width="1.5"></path><path d="M507.45 491.82L639.6 381.03" stroke="hsl(228.5, 77.2%, 51.5%)" stroke-width="1.5"></path><path d="M507.45 491.82L662.01 658.14" stroke="hsl(228.5, 77.2%, 51.5%)" stroke-width="1.5"></path><path d="M507.45 491.82L346.08 669.89" stroke="hsl(228.5, 77.2%, 51.5%)" stroke-width="1.5"></path><path d="M639.6 381.03L639.6 381.03" stroke="hsl(228.5, 77.2%, 51.5%)" stroke-width="1.5"></path><path d="M639.6 381.03L652.01 534.26" stroke="hsl(228.5, 77.2%, 51.5%)" stroke-width="1.5"></path><path d="M639.6 381.03L819.26 391.14" stroke="hsl(228.5, 77.2%, 51.5%)" stroke-width="1.5"></path><path d="M639.6 381.03L797.36 532.46" stroke="hsl(228.5, 77.2%, 51.5%)" stroke-width="1.5"></path><path d="M639.6 381.03L662.01 658.14" stroke="hsl(228.5, 77.2%, 51.5%)" stroke-width="1.5"></path><path d="M652.01 534.26L652.01 534.26" stroke="hsl(228.5, 77.2%, 51.5%)" stroke-width="1.5"></path><path d="M652.01 534.26L797.36 532.46" stroke="hsl(228.5, 77.2%, 51.5%)" stroke-width="1.5"></path><path d="M652.01 534.26L790.15 648.66" stroke="hsl(228.5, 77.2%, 51.5%)" stroke-width="1.5"></path><path d="M819.26 391.14L819.26 391.14" stroke="hsl(228.5, 77.2%, 51.5%)" stroke-width="1.5"></path><path d="M819.26 391.14L797.36 532.46" stroke="hsl(228.5, 77.2%, 51.5%)" stroke-width="1.5"></path><path d="M797.36 532.46L797.36 532.46" stroke="hsl(228.5, 77.2%, 51.5%)" stroke-width="1.5"></path><path d="M797.36 532.46L790.15 648.66" stroke="hsl(228.5, 77.2%, 51.5%)" stroke-width="1.5"></path><path d="M797.36 532.46L989.75 493.14" stroke="hsl(228.5, 77.2%, 51.5%)" stroke-width="1.5"></path><path d="M790.15 648.66L790.15 648.66" stroke="hsl(228.5, 77.2%, 51.5%)" stroke-width="1.5"></path><path d="M1002.58 251.04L1002.58 251.04" stroke="hsl(228.5, 77.2%, 51.5%)" stroke-width="1.5"></path><path d="M1002.58 251.04L1138.1 239.84" stroke="hsl(228.5, 77.2%, 51.5%)" stroke-width="1.5"></path><path d="M1002.58 251.04L1105.41 370.8" stroke="hsl(228.5, 77.2%, 51.5%)" stroke-width="1.5"></path><path d="M1002.58 251.04L819.26 391.14" stroke="hsl(228.5, 77.2%, 51.5%)" stroke-width="1.5"></path><path d="M1002.58 251.04L989.75 493.14" stroke="hsl(228.5, 77.2%, 51.5%)" stroke-width="1.5"></path><path d="M1002.58 251.04L1289.83 196.09" stroke="hsl(228.5, 77.2%, 51.5%)" stroke-width="1.5"></path><path d="M989.75 493.14L989.75 493.14" stroke="hsl(228.5, 77.2%, 51.5%)" stroke-width="1.5"></path><path d="M989.75 493.14L1147.16 535.09" stroke="hsl(228.5, 77.2%, 51.5%)" stroke-width="1.5"></path><path d="M1157.96 -41.77L1157.96 -41.77" stroke="hsl(228.5, 77.2%, 51.5%)" stroke-width="1.5"></path><path d="M1157.96 -41.77L1285.8 -82.13" stroke="hsl(228.5, 77.2%, 51.5%)" stroke-width="1.5"></path><path d="M1157.96 -41.77L1289.83 196.09" stroke="hsl(228.5, 77.2%, 51.5%)" stroke-width="1.5"></path><path d="M1157.96 -41.77L1417.26 48.61" stroke="hsl(228.5, 77.2%, 51.5%)" stroke-width="1.5"></path><path d="M1157.96 -41.77L1138.1 239.84" stroke="hsl(228.5, 77.2%, 51.5%)" stroke-width="1.5"></path><path d="M1157.96 -41.77L1461.23 -61.5" stroke="hsl(228.5, 77.2%, 51.5%)" stroke-width="1.5"></path><path d="M1138.1 239.84L1138.1 239.84" stroke="hsl(228.5, 77.2%, 51.5%)" stroke-width="1.5"></path><path d="M1138.1 239.84L1105.41 370.8" stroke="hsl(228.5, 77.2%, 51.5%)" stroke-width="1.5"></path><path d="M1138.1 239.84L1289.83 196.09" stroke="hsl(228.5, 77.2%, 51.5%)" stroke-width="1.5"></path><path d="M1138.1 239.84L1294.81 366.92" stroke="hsl(228.5, 77.2%, 51.5%)" stroke-width="1.5"></path><path d="M1105.41 370.8L1105.41 370.8" stroke="hsl(228.5, 77.2%, 51.5%)" stroke-width="1.5"></path><path d="M1105.41 370.8L989.75 493.14" stroke="hsl(228.5, 77.2%, 51.5%)" stroke-width="1.5"></path><path d="M1105.41 370.8L1147.16 535.09" stroke="hsl(228.5, 77.2%, 51.5%)" stroke-width="1.5"></path><path d="M1147.16 535.09L1147.16 535.09" stroke="hsl(228.5, 77.2%, 51.5%)" stroke-width="1.5"></path><path d="M1147.16 535.09L1247.97 488.38" stroke="hsl(228.5, 77.2%, 51.5%)" stroke-width="1.5"></path><path d="M1147.16 535.09L1126.98 679.69" stroke="hsl(228.5, 77.2%, 51.5%)" stroke-width="1.5"></path><path d="M1147.16 535.09L1294.81 366.92" stroke="hsl(228.5, 77.2%, 51.5%)" stroke-width="1.5"></path><path d="M1126.98 679.69L1126.98 679.69" stroke="hsl(228.5, 77.2%, 51.5%)" stroke-width="1.5"></path><path d="M1126.98 679.69L1247.97 488.38" stroke="hsl(228.5, 77.2%, 51.5%)" stroke-width="1.5"></path><path d="M1126.98 679.69L989.75 493.14" stroke="hsl(228.5, 77.2%, 51.5%)" stroke-width="1.5"></path><path d="M1285.8 -82.13L1285.8 -82.13" stroke="hsl(228.5, 77.2%, 51.5%)" stroke-width="1.5"></path><path d="M1285.8 -82.13L1461.23 -61.5" stroke="hsl(228.5, 77.2%, 51.5%)" stroke-width="1.5"></path><path d="M1289.83 196.09L1289.83 196.09" stroke="hsl(228.5, 77.2%, 51.5%)" stroke-width="1.5"></path><path d="M1289.83 196.09L1419.28 220.52" stroke="hsl(228.5, 77.2%, 51.5%)" stroke-width="1.5"></path><path d="M1289.83 196.09L1294.81 366.92" stroke="hsl(228.5, 77.2%, 51.5%)" stroke-width="1.5"></path><path d="M1289.83 196.09L1417.26 48.61" stroke="hsl(228.5, 77.2%, 51.5%)" stroke-width="1.5"></path><path d="M1289.83 196.09L1432.61 346.34" stroke="hsl(228.5, 77.2%, 51.5%)" stroke-width="1.5"></path><path d="M1289.83 196.09L1105.41 370.8" stroke="hsl(228.5, 77.2%, 51.5%)" stroke-width="1.5"></path><path d="M1247.97 488.38L1247.97 488.38" stroke="hsl(228.5, 77.2%, 51.5%)" stroke-width="1.5"></path><path d="M1461.23 -61.5L1461.23 -61.5" stroke="hsl(228.5, 77.2%, 51.5%)" stroke-width="1.5"></path><path d="M1461.23 -61.5L1417.26 48.61" stroke="hsl(228.5, 77.2%, 51.5%)" stroke-width="1.5"></path><path d="M1461.23 -61.5L1590.71 -67.78" stroke="hsl(228.5, 77.2%, 51.5%)" stroke-width="1.5"></path><path d="M1417.26 48.61L1417.26 48.61" stroke="hsl(228.5, 77.2%, 51.5%)" stroke-width="1.5"></path><path d="M1417.26 48.61L1545.52 110.56" stroke="hsl(228.5, 77.2%, 51.5%)" stroke-width="1.5"></path><path d="M1417.26 48.61L1419.28 220.52" stroke="hsl(228.5, 77.2%, 51.5%)" stroke-width="1.5"></path><path d="M1417.26 48.61L1285.8 -82.13" stroke="hsl(228.5, 77.2%, 51.5%)" stroke-width="1.5"></path><path d="M1417.26 48.61L1590.71 -67.78" stroke="hsl(228.5, 77.2%, 51.5%)" stroke-width="1.5"></path><path d="M1419.28 220.52L1419.28 220.52" stroke="hsl(228.5, 77.2%, 51.5%)" stroke-width="1.5"></path><path d="M1419.28 220.52L1432.61 346.34" stroke="hsl(228.5, 77.2%, 51.5%)" stroke-width="1.5"></path><path d="M1419.28 220.52L1574.28 237.84" stroke="hsl(228.5, 77.2%, 51.5%)" stroke-width="1.5"></path><path d="M1419.28 220.52L1545.52 110.56" stroke="hsl(228.5, 77.2%, 51.5%)" stroke-width="1.5"></path><path d="M1432.61 346.34L1432.61 346.34" stroke="hsl(228.5, 77.2%, 51.5%)" stroke-width="1.5"></path><path d="M1432.61 346.34L1574.28 237.84" stroke="hsl(228.5, 77.2%, 51.5%)" stroke-width="1.5"></path><path d="M1388.4 522.07L1388.4 522.07" stroke="hsl(228.5, 77.2%, 51.5%)" stroke-width="1.5"></path><path d="M1388.4 522.07L1247.97 488.38" stroke="hsl(228.5, 77.2%, 51.5%)" stroke-width="1.5"></path><path d="M1388.4 522.07L1294.81 366.92" stroke="hsl(228.5, 77.2%, 51.5%)" stroke-width="1.5"></path><path d="M1388.4 522.07L1432.61 346.34" stroke="hsl(228.5, 77.2%, 51.5%)" stroke-width="1.5"></path><path d="M1388.4 522.07L1147.16 535.09" stroke="hsl(228.5, 77.2%, 51.5%)" stroke-width="1.5"></path><path d="M1590.71 -67.78L1590.71 -67.78" stroke="hsl(228.5, 77.2%, 51.5%)" stroke-width="1.5"></path><path d="M1590.71 -67.78L1545.52 110.56" stroke="hsl(228.5, 77.2%, 51.5%)" stroke-width="1.5"></path><path d="M1590.71 -67.78L1285.8 -82.13" stroke="hsl(228.5, 77.2%, 51.5%)" stroke-width="1.5"></path><path d="M1590.71 -67.78L1574.28 237.84" stroke="hsl(228.5, 77.2%, 51.5%)" stroke-width="1.5"></path><path d="M1590.71 -67.78L1419.28 220.52" stroke="hsl(228.5, 77.2%, 51.5%)" stroke-width="1.5"></path><path d="M1545.52 110.56L1545.52 110.56" stroke="hsl(228.5, 77.2%, 51.5%)" stroke-width="1.5"></path><path d="M1545.52 110.56L1574.28 237.84" stroke="hsl(228.5, 77.2%, 51.5%)" stroke-width="1.5"></path><path d="M1545.52 110.56L1461.23 -61.5" stroke="hsl(228.5, 77.2%, 51.5%)" stroke-width="1.5"></path><path d="M1574.28 237.84L1574.28 237.84" stroke="hsl(228.5, 77.2%, 51.5%)" stroke-width="1.5"></path><path d="M1580.84 684.55L1580.84 684.55" stroke="hsl(228.5, 77.2%, 51.5%)" stroke-width="1.5"></path><path d="M1580.84 684.55L1388.4 522.07" stroke="hsl(228.5, 77.2%, 51.5%)" stroke-width="1.5"></path><path d="M1580.84 684.55L1555.35 346.13" stroke="hsl(228.5, 77.2%, 51.5%)" stroke-width="1.5"></path><path d="M1580.84 684.55L1432.61 346.34" stroke="hsl(228.5, 77.2%, 51.5%)" stroke-width="1.5"></path><path d="M1580.84 684.55L1247.97 488.38" stroke="hsl(228.5, 77.2%, 51.5%)" stroke-width="1.5"></path><circle r="25" cx="51.45" cy="516.27" fill="url(#SvgjsRadialGradient1001)"></circle><circle r="25" cx="490.05" cy="643.33" fill="url(#SvgjsRadialGradient1001)"></circle><circle r="25" cx="662.01" cy="658.14" fill="url(#SvgjsRadialGradient1001)"></circle><circle r="25" cx="948.07" cy="346.5" fill="url(#SvgjsRadialGradient1001)"></circle><circle r="25" cx="990.29" cy="656.28" fill="url(#SvgjsRadialGradient1001)"></circle><circle r="25" cx="1294.81" cy="366.92" fill="url(#SvgjsRadialGradient1001)"></circle><circle r="25" cx="1555.35" cy="346.13" fill="url(#SvgjsRadialGradient1001)"></circle><circle r="25" cx="1602.99" cy="531.65" fill="url(#SvgjsRadialGradient1001)"></circle><circle r="5" cx="-77.81" cy="496.68" fill="#8b9ad9"></circle><circle r="5" cx="-100.76" cy="669.9" fill="#8b9ad9"></circle><circle r="5" cx="66.42" cy="676.73" fill="#8b9ad9"></circle><circle r="5" cx="212.01" cy="537.86" fill="#8b9ad9"></circle><circle r="5" cx="234.5" cy="709.14" fill="#8b9ad9"></circle><circle r="5" cx="385.05" cy="505.83" fill="#8b9ad9"></circle><circle r="5" cx="346.08" cy="669.89" fill="#8b9ad9"></circle><circle r="5" cx="507.45" cy="491.82" fill="#8b9ad9"></circle><circle r="5" cx="639.6" cy="381.03" fill="#8b9ad9"></circle><circle r="5" cx="652.01" cy="534.26" fill="#8b9ad9"></circle><circle r="5" cx="819.26" cy="391.14" fill="#8b9ad9"></circle><circle r="5" cx="797.36" cy="532.46" fill="#8b9ad9"></circle><circle r="5" cx="790.15" cy="648.66" fill="#8b9ad9"></circle><circle r="5" cx="1002.58" cy="251.04" fill="#8b9ad9"></circle><circle r="5" cx="989.75" cy="493.14" fill="#8b9ad9"></circle><circle r="5" cx="1157.96" cy="-41.77" fill="#8b9ad9"></circle><circle r="5" cx="1138.1" cy="239.84" fill="#8b9ad9"></circle><circle r="5" cx="1105.41" cy="370.8" fill="#8b9ad9"></circle><circle r="5" cx="1147.16" cy="535.09" fill="#8b9ad9"></circle><circle r="5" cx="1126.98" cy="679.69" fill="#8b9ad9"></circle><circle r="5" cx="1285.8" cy="-82.13" fill="#8b9ad9"></circle><circle r="5" cx="1289.83" cy="196.09" fill="#8b9ad9"></circle><circle r="5" cx="1247.97" cy="488.38" fill="#8b9ad9"></circle><circle r="5" cx="1461.23" cy="-61.5" fill="#8b9ad9"></circle><circle r="5" cx="1417.26" cy="48.61" fill="#8b9ad9"></circle><circle r="5" cx="1419.28" cy="220.52" fill="#8b9ad9"></circle><circle r="5" cx="1432.61" cy="346.34" fill="#8b9ad9"></circle><circle r="5" cx="1388.4" cy="522.07" fill="#8b9ad9"></circle><circle r="5" cx="1590.71" cy="-67.78" fill="#8b9ad9"></circle><circle r="5" cx="1545.52" cy="110.56" fill="#8b9ad9"></circle><circle r="5" cx="1574.28" cy="237.84" fill="#8b9ad9"></circle><circle r="5" cx="1580.84" cy="684.55" fill="#8b9ad9"></circle></g><defs><mask id="SvgjsMask1000"><rect width="1440" height="560" fill="#ffffff"></rect></mask><radialGradient id="SvgjsRadialGradient1001"><stop stop-color="#ffffff" offset="0.1"></stop><stop stop-color="#1735b3" offset="0.2"></stop><stop stop-color="rgba(23, 53, 179, 0)" offset="1"></stop></radialGradient></defs></svg>